# xmcd
#
# Track frame offsets:
#	150
#	16277
#	31727
#	47855
#	63842
#	77930
#	91877
#	107890
#	128625
#	143847
#	159377
#	173195
#
# Disc length: 2515 seconds
#
# Revision: 0
# Processed by: cddbd v1.5.2PL0 Copyright (c) Steve Scherf et al.
# Submitted via: EasyCDDAExtractor 11.1.0.1
#
DISCID=9309d10c
DTITLE=Various Artist - Nashville Music expres
DYEAR=1900
DGENRE=country
TTITLE0=Riders in the sky - Arms of my love
TTITLE1=Jerry Reed - Case of the blues
TTITLE2=David Crawford - Don't try and party
TTITLE3=Elvis Wade  - Heartache comin'
TTITLE4=Jamie Cotter - I'll spend my life loving you
TTITLE5=Copperhead - Lookin' high lookin' low
TTITLE6=Jerry Reed - My Priscilla
TTITLE7=Delayna Brooks - Our bed's gonna miss you tonight
TTITLE8=David Crawford - Put your heart back in the country
TTITLE9=Hoyt Axton - Streamline cannonball
TTITLE10=Bobby Caraway - The man from Texas
TTITLE11=Hoyt Axton - Waitin' on the real thing
EXTD=
EXTT0=
EXTT1=
EXTT2=
EXTT3=
EXTT4=
EXTT5=
EXTT6=
EXTT7=
EXTT8=
EXTT9=
EXTT10=
EXTT11=
PLAYORDER=
